<?xml version="1.0" encoding="UTF-8" standalone="no"?>
<!DOCTYPE svg PUBLIC "-//W3C//DTD SVG 1.1//EN" "http://www.w3.org/Graphics/SVG/1.1/DTD/svg11.dtd">
<!-- Created with Vectornator (http://vectornator.io/) -->
<svg height="100%" stroke-miterlimit="10" style="fill-rule:nonzero;clip-rule:evenodd;stroke-linecap:round;stroke-linejoin:round;" version="1.1" viewBox="0 0 120 120" width="100%" xml:space="preserve" xmlns="http://www.w3.org/2000/svg" xmlns:xlink="http://www.w3.org/1999/xlink">
<defs/>
<g id="Layer-1">
<path d="M59.8273 108.675L89.0378 92.3677L89.0378 92.3677L59.8273 76.0492L59.8273 76.0492L30.6864 92.3677L30.6864 92.3677L59.8273 108.675" fill="#3f5d51" fill-rule="nonzero" opacity="1" stroke="none"/>
<path d="M34.7478 93.9979L34.7478 75.6148L34.7478 75.6148L31.7222 73.9118L31.7222 73.9118L31.7222 92.3309L31.7222 92.3309L34.7478 93.9979" fill="#5a2e14" fill-rule="nonzero" opacity="1" stroke="none"/>
<path d="M34.7478 93.9979L37.8146 92.3309L37.8146 92.3309L37.8146 73.9118L37.8146 73.9118L34.7478 75.6148L34.7478 75.6148L34.7478 93.9979" fill="#6f3a1a" fill-rule="nonzero" opacity="1" stroke="none"/>
<path d="M84.918 93.9959L84.918 75.6128L84.918 75.6128L81.8924 73.9098L81.8924 73.9098L81.8924 92.3289L81.8924 92.3289L84.918 93.9959" fill="#5a2e14" fill-rule="nonzero" opacity="1" stroke="none"/>
<path d="M84.918 93.9959L87.9847 92.3289L87.9847 92.3289L87.9847 73.9098L87.9847 73.9098L84.918 75.6128L84.918 75.6128L84.918 93.9959" fill="#6f3a1a" fill-rule="nonzero" opacity="1" stroke="none"/>
<path d="M59.8415 107.833L59.8415 89.4502L59.8415 89.4502L56.8159 87.7472L56.8159 87.7472L56.8159 106.166L56.8159 106.166L59.8415 107.833" fill="#5a2e14" fill-rule="nonzero" opacity="1" stroke="none"/>
<path d="M59.8415 107.833L62.9083 106.166L62.9083 106.166L62.9083 87.7472L62.9083 87.7472L59.8415 89.4502L59.8415 89.4502L59.8415 107.833" fill="#6f3a1a" fill-rule="nonzero" opacity="1" stroke="none"/>
<path d="M92.6407 72.5329L59.8507 90.8925L59.8507 90.8925L59.8507 86.9675L59.8507 86.9675L92.6407 68.6126L92.6407 68.6126L92.6407 72.5619" fill="#6f3a1a" fill-rule="nonzero" opacity="1" stroke="none"/>
<path d="M27.0705 72.5248L59.862 90.8844L59.862 90.8844L59.862 86.9595L59.862 86.9595L27.0705 68.6045L27.0705 68.6045L27.0705 72.5538" fill="#5a2e14" fill-rule="nonzero" opacity="1" stroke="none"/>
<path d="M59.8493 86.9597L92.6537 68.6461L92.6537 68.6461L59.8493 50.3198L59.8493 50.3198L27.1231 68.6461L27.1231 68.6461L59.8493 86.9597" fill="#994e21" fill-rule="nonzero" opacity="1" stroke="none"/>
<path d="M92.5676 68.6639L59.8621 86.9476L59.8621 86.9701L76.7838 68.0135L76.7838 68.0669L92.6511 68.6508" fill="#6f3a1a" fill-rule="nonzero" opacity="1" stroke="none"/>
<path d="M27.1566 68.6464L59.8621 86.9301L59.8621 86.9701L76.7838 68.0135L76.7838 68.0481L43.9819 49.7336L43.9948 49.6795L27.0731 68.6362" fill="#653417" fill-rule="nonzero" opacity="1" stroke="none"/>
<path d="M92.6511 68.6508L76.7838 68.0669L76.7838 68.0481L43.9819 49.7336L43.9948 49.7329L59.8621 50.3168L59.8621 50.2975L92.6063 68.6348" fill="#904a20" fill-rule="nonzero" opacity="1" stroke="none"/>
</g>
</svg>
