<?xml version="1.0" encoding="UTF-8" standalone="no"?>
<!DOCTYPE svg PUBLIC "-//W3C//DTD SVG 1.1//EN" "http://www.w3.org/Graphics/SVG/1.1/DTD/svg11.dtd">
<!-- Created with Vectornator (http://vectornator.io/) -->
<svg height="100%" stroke-miterlimit="10" style="fill-rule:nonzero;clip-rule:evenodd;stroke-linecap:round;stroke-linejoin:round;" version="1.1" viewBox="0 0 100 100" width="100%" xml:space="preserve" xmlns="http://www.w3.org/2000/svg" xmlns:xlink="http://www.w3.org/1999/xlink">
<defs/>
<g id="Layer-1">
<path d="M50.0178 37.4019L50.0178 67.734L50.0178 67.734L42.4252 63.631L42.4252 63.631L42.4252 33.3353L42.4252 33.3353" fill="#26d600" fill-rule="nonzero" opacity="1" stroke="none"/>
<path d="M50.0178 37.3713L57.6078 33.3006L57.6078 33.3006L57.6078 63.6269L57.6078 63.6269L50.0178 67.734L50.0178 67.734L50.0178 37.3713" fill="#2aea00" fill-rule="nonzero" opacity="1" stroke="none"/>
<path d="M50.0339 50.5951L50.0339 80.9271L50.0339 80.9271L42.4413 76.8241L42.4413 76.8241L42.4413 46.5285L42.4413 46.5285" fill="#26d600" fill-rule="nonzero" opacity="1" stroke="none"/>
<path d="M50.0339 50.5644L57.6239 46.4937L57.6239 46.4937L57.6239 76.82L57.6239 76.82L50.0339 80.9271L50.0339 80.9271L50.0339 50.5644" fill="#2aea00" fill-rule="nonzero" opacity="1" stroke="none"/>
<path d="M57.582 33.3418L50.0056 37.3657L50.0178 37.3657L42.4413 33.3418L42.4413 33.3313L50.0178 29.3074L50.0056 29.2768L57.582 33.3007" fill="#2eff00" fill-rule="nonzero" opacity="1" stroke="none"/>
<path d="M44.3121 54.3184L42.4413 54.3184" fill="none" opacity="1" stroke="#000000" stroke-linecap="butt" stroke-linejoin="round" stroke-width="1"/>
<path d="M47.9058 45.8L46.4413 45.1419" fill="none" opacity="1" stroke="#000000" stroke-linecap="butt" stroke-linejoin="round" stroke-width="1"/>
<path d="M51.2833 43.4715L51.8218 41.9937" fill="none" opacity="1" stroke="#000000" stroke-linecap="butt" stroke-linejoin="round" stroke-width="1"/>
<path d="M54.6507 61.0116L56.0865 62.0713" fill="none" opacity="1" stroke="#000000" stroke-linecap="butt" stroke-linejoin="round" stroke-width="1"/>
<path d="M45.3702 39.5754L43.8069 40.059" fill="none" opacity="1" stroke="#000000" stroke-linecap="butt" stroke-linejoin="round" stroke-width="1"/>
<path d="M54.795 54.7463L56.3776 54.1003" fill="none" opacity="1" stroke="#000000" stroke-linecap="butt" stroke-linejoin="round" stroke-width="1"/>
<path d="M43.3604 58.5533L41.5222 59.2687" fill="none" opacity="1" stroke="#000000" stroke-linecap="butt" stroke-linejoin="round" stroke-width="1"/>
<path d="M53.0717 72.9507L54.5731 74.2089" fill="none" opacity="1" stroke="#000000" stroke-linecap="butt" stroke-linejoin="round" stroke-width="1"/>
<path d="M46.8974 71.3435L45.5738 71.6189" fill="none" opacity="1" stroke="#000000" stroke-linecap="butt" stroke-linejoin="round" stroke-width="1"/>
<path d="M53.2333 70.1956L54.9135 69.5171" fill="none" opacity="1" stroke="#000000" stroke-linecap="butt" stroke-linejoin="round" stroke-width="1"/>
<path d="M47.5857 58.0191L48.265 56.126" fill="none" opacity="1" stroke="#000000" stroke-linecap="butt" stroke-linejoin="round" stroke-width="1"/>
<path d="M56.0783 43.7986L55.9434 42.1141" fill="none" opacity="1" stroke="#000000" stroke-linecap="butt" stroke-linejoin="round" stroke-width="1"/>
<path d="M43.2134 70.8788L41.6693 71.7867" fill="none" opacity="1" stroke="#000000" stroke-linecap="butt" stroke-linejoin="round" stroke-width="1"/>
<path d="M47.4391 76.1056L46.7853 77.5398" fill="none" opacity="1" stroke="#000000" stroke-linecap="butt" stroke-linejoin="round" stroke-width="1"/>
<path d="M47.9273 65.7822L46.877 65.1983" fill="none" opacity="1" stroke="#000000" stroke-linecap="butt" stroke-linejoin="round" stroke-width="1"/>
<path d="M56.6721 65.3975L58.492 65.5485" fill="none" opacity="1" stroke="#000000" stroke-linecap="butt" stroke-linejoin="round" stroke-width="1"/>
<path d="M53.1514 50.3528L54.0934 48.3765" fill="none" opacity="1" stroke="#000000" stroke-linecap="butt" stroke-linejoin="round" stroke-width="1"/>
<path d="M52.567 32.612L52.6901 31.0762" fill="none" opacity="1" stroke="#000000" stroke-linecap="butt" stroke-linejoin="round" stroke-width="1"/>
<path d="M48.9741 31.8194L47.6379 31.5135" fill="none" opacity="1" stroke="#000000" stroke-linecap="butt" stroke-linejoin="round" stroke-width="1"/>
<path d="M50.0178 34.0922L48.205 34.5973" fill="none" opacity="1" stroke="#000000" stroke-linecap="butt" stroke-linejoin="round" stroke-width="1"/>
<path d="M50.0178 30.3777L51.5743 29.2404" fill="none" opacity="1" stroke="#000000" stroke-linecap="butt" stroke-linejoin="round" stroke-width="1"/>
<path d="M54.1511 35.6586L55.3194 34.2393" fill="none" opacity="1" stroke="#000000" stroke-linecap="butt" stroke-linejoin="round" stroke-width="1"/>
<path d="M45.4965 34.2397L44.8839 34.6169" fill="none" opacity="1" stroke="#000000" stroke-linecap="butt" stroke-linejoin="round" stroke-width="1"/>
<path d="M43.9532 44.5673L42.4413 43.7119" fill="none" opacity="1" stroke="#000000" stroke-linecap="butt" stroke-linejoin="round" stroke-width="1"/>
<path d="M52.9945 56.7775L52.3901 55.5381" fill="none" opacity="1" stroke="#000000" stroke-linecap="butt" stroke-linejoin="round" stroke-width="1"/>
</g>
</svg>
