<?xml version="1.0" encoding="UTF-8" standalone="no"?>
<!DOCTYPE svg PUBLIC "-//W3C//DTD SVG 1.1//EN" "http://www.w3.org/Graphics/SVG/1.1/DTD/svg11.dtd">
<!-- Created with Vectornator (http://vectornator.io/) -->
<svg height="100%" stroke-miterlimit="10" style="fill-rule:nonzero;clip-rule:evenodd;stroke-linecap:round;stroke-linejoin:round;" version="1.1" viewBox="0 0 100 100" width="100%" xml:space="preserve" xmlns="http://www.w3.org/2000/svg" xmlns:xlink="http://www.w3.org/1999/xlink">
<defs/>
<g id="Layer-1">
<path d="M50.5867 51.1397L50.5867 59.8521L50.5867 59.8521L48.4058 58.6736L48.4058 58.6736L48.4058 49.9717L48.4058 49.9717" fill="#198c00" fill-rule="nonzero" opacity="1" stroke="none"/>
<path d="M50.5891 51.1383L52.7643 49.9717L52.7643 49.9717L52.7643 58.6627L52.7643 58.6627L50.5891 59.8398L50.5891 59.8398L50.5891 51.1383" fill="#1eaa00" fill-rule="nonzero" opacity="1" stroke="none"/>
<path d="M50.5892 48.7174L50.5892 57.4298L50.5892 57.4298L48.4083 56.2513L48.4083 56.2513L48.4083 47.5494L48.4083 47.5494" fill="#2e8c01" fill-rule="nonzero" opacity="1" stroke="none"/>
<path d="M50.5916 48.716L52.7668 47.5494L52.7668 47.5494L52.7668 56.2404L52.7668 56.2404L50.5916 57.4175L50.5916 57.4175L50.5916 48.716" fill="#36a401" fill-rule="nonzero" opacity="1" stroke="none"/>
<path d="M50.5817 48.7172L52.7579 47.5494L52.7579 47.5494L50.5817 46.3654L50.5817 46.3654L48.4083 47.5494L48.4083 47.5494L50.5817 48.7172" fill="#3bb500" fill-rule="nonzero" opacity="1" stroke="none"/>
<path d="M54.4611 53.44L54.4611 62.1524L54.4611 62.1524L52.2803 60.9738L52.2803 60.9738L52.2803 52.272L52.2803 52.272" fill="#198c00" fill-rule="nonzero" opacity="1" stroke="none"/>
<path d="M54.4636 53.4386L56.6388 52.272L56.6388 52.272L56.6388 60.963L56.6388 60.963L54.4636 62.1401L54.4636 62.1401L54.4636 53.4386" fill="#36a401" fill-rule="nonzero" opacity="1" stroke="none"/>
<path d="M54.4537 53.4398L56.6299 52.272L56.6299 52.272L54.4537 51.088L54.4537 51.088L52.2803 52.272L52.2803 52.272L54.4537 53.4398" fill="#3bb500" fill-rule="nonzero" opacity="1" stroke="none"/>
<path d="M53.463 56.7169L53.463 65.4293L53.463 65.4293L51.2822 64.2507L51.2822 64.2507L51.2822 55.5489L51.2822 55.5489" fill="#198c00" fill-rule="nonzero" opacity="1" stroke="none"/>
<path d="M53.4654 56.7155L55.6406 55.5489L55.6406 55.5489L55.6406 64.2399L55.6406 64.2399L53.4654 65.417L53.4654 65.417L53.4654 56.7155" fill="#36a401" fill-rule="nonzero" opacity="1" stroke="none"/>
<path d="M53.4556 56.7167L55.6317 55.5489L55.6317 55.5489L53.4556 54.3649L53.4556 54.3649L51.2822 55.5489L51.2822 55.5489L53.4556 56.7167" fill="#22c100" fill-rule="nonzero" opacity="1" stroke="none"/>
<path d="M53.463 50.0008L53.463 58.7131L53.463 58.7131L51.2822 57.5346L51.2822 57.5346L51.2822 48.8327L51.2822 48.8327" fill="#2e8c01" fill-rule="nonzero" opacity="1" stroke="none"/>
<path d="M53.4654 49.9993L55.6406 48.8327L55.6406 48.8327L55.6406 57.5237L55.6406 57.5237L53.4654 58.7008L53.4654 58.7008L53.4654 49.9993" fill="#36a401" fill-rule="nonzero" opacity="1" stroke="none"/>
<path d="M53.4556 50.0006L55.6317 48.8327L55.6317 48.8327L53.4556 47.6488L53.4556 47.6488L51.2822 48.8327L51.2822 48.8327L53.4556 50.0006" fill="#3bb500" fill-rule="nonzero" opacity="1" stroke="none"/>
<path d="M45.2752 57.2883L45.2752 66.0007L45.2752 66.0007L43.0944 64.8222L43.0944 64.8222L43.0944 56.1203L43.0944 56.1203" fill="#2e8c01" fill-rule="nonzero" opacity="1" stroke="none"/>
<path d="M45.2776 57.2868L47.4529 56.1203L47.4529 56.1203L47.4529 64.8113L47.4529 64.8113L45.2776 65.9883L45.2776 65.9883L45.2776 57.2868" fill="#1eaa00" fill-rule="nonzero" opacity="1" stroke="none"/>
<path d="M45.2717 51.5217L45.2717 60.234L45.2717 60.234L43.0909 59.0555L43.0909 59.0555L43.0909 50.3535L43.0909 50.3535" fill="#2e8c01" fill-rule="nonzero" opacity="1" stroke="none"/>
<path d="M45.2741 51.5201L47.4493 50.3535L47.4493 50.3535L47.4493 59.0446L47.4493 59.0446L45.2741 60.2216L45.2741 60.2216L45.2741 51.5201" fill="#36a401" fill-rule="nonzero" opacity="1" stroke="none"/>
<path d="M45.2642 51.5214L47.4404 50.3535L47.4404 50.3535L45.2642 49.1696L45.2642 49.1696L43.0909 50.3535L43.0909 50.3535L45.2642 51.5214" fill="#3bb500" fill-rule="nonzero" opacity="1" stroke="none"/>
<path d="M46.9533 55.0634L46.9533 63.7757L46.9533 63.7757L44.7724 62.5972L44.7724 62.5972L44.7724 53.8953L44.7724 53.8953" fill="#198c00" fill-rule="nonzero" opacity="1" stroke="none"/>
<path d="M46.9557 55.0619L49.1309 53.8953L49.1309 53.8953L49.1309 62.5863L49.1309 62.5863L46.9557 63.7634L46.9557 63.7634L46.9557 55.0619" fill="#1eaa00" fill-rule="nonzero" opacity="1" stroke="none"/>
<path d="M46.9458 55.0631L49.122 53.8953L49.122 53.8953L46.9458 52.7113L46.9458 52.7113L44.7724 53.8953L44.7724 53.8953L46.9458 55.0631" fill="#22c100" fill-rule="nonzero" opacity="1" stroke="none"/>
<path d="M46.9558 52.6411L46.9558 61.3534L46.9558 61.3534L44.7749 60.1749L44.7749 60.1749L44.7749 51.473L44.7749 51.473" fill="#2e8c01" fill-rule="nonzero" opacity="1" stroke="none"/>
<path d="M46.9582 52.6396L49.1334 51.473L49.1334 51.473L49.1334 60.164L49.1334 60.164L46.9582 61.3411L46.9582 61.3411L46.9582 52.6396" fill="#36a401" fill-rule="nonzero" opacity="1" stroke="none"/>
<path d="M46.9483 52.6408L49.1245 51.473L49.1245 51.473L46.9483 50.289L46.9483 50.289L44.7749 51.473L44.7749 51.473L46.9483 52.6408" fill="#3bb500" fill-rule="nonzero" opacity="1" stroke="none"/>
<path d="M23.1213 64.5814L23.1213 73.2937L23.1213 73.2937L20.9405 72.1152L20.9405 72.1152L20.9405 63.4133L20.9405 63.4133" fill="#2e8c01" fill-rule="nonzero" opacity="1" stroke="none"/>
<path d="M23.1237 64.5799L25.2989 63.4133L25.2989 63.4133L25.2989 72.1043L25.2989 72.1043L23.1237 73.2814L23.1237 73.2814L23.1237 64.5799" fill="#1eaa00" fill-rule="nonzero" opacity="1" stroke="none"/>
<path d="M23.1238 62.1591L23.1238 70.8714L23.1238 70.8714L20.943 69.6929L20.943 69.6929L20.943 60.991L20.943 60.991" fill="#2e8c01" fill-rule="nonzero" opacity="1" stroke="none"/>
<path d="M23.1263 62.1576L25.3015 60.991L25.3015 60.991L25.3015 69.682L25.3015 69.682L23.1263 70.8591L23.1263 70.8591L23.1263 62.1576" fill="#36a401" fill-rule="nonzero" opacity="1" stroke="none"/>
<path d="M23.1164 62.1588L25.2925 60.991L25.2925 60.991L23.1164 59.8071L23.1164 59.8071L20.943 60.991L20.943 60.991L23.1164 62.1588" fill="#3bb500" fill-rule="nonzero" opacity="1" stroke="none"/>
<path d="M26.9454 65.0069L26.9454 73.7193L26.9454 73.7193L24.7646 72.5408L24.7646 72.5408L24.7646 63.8389L24.7646 63.8389" fill="#2e8c01" fill-rule="nonzero" opacity="1" stroke="none"/>
<path d="M26.9478 65.0055L29.123 63.8389L29.123 63.8389L29.123 72.53L29.123 72.53L26.9478 73.707L26.9478 73.707L26.9478 65.0055" fill="#36a401" fill-rule="nonzero" opacity="1" stroke="none"/>
<path d="M26.9419 59.2403L26.9419 67.9526L26.9419 67.9526L24.7611 66.7741L24.7611 66.7741L24.7611 58.0722L24.7611 58.0722" fill="#2e8c01" fill-rule="nonzero" opacity="1" stroke="none"/>
<path d="M26.9443 59.2388L29.1195 58.0722L29.1195 58.0722L29.1195 66.7633L29.1195 66.7633L26.9443 67.9403L26.9443 67.9403L26.9443 59.2388" fill="#36a401" fill-rule="nonzero" opacity="1" stroke="none"/>
<path d="M26.9344 59.2401L29.1106 58.0722L29.1106 58.0722L26.9344 56.8882L26.9344 56.8882L24.7611 58.0722L24.7611 58.0722L26.9344 59.2401" fill="#3bb500" fill-rule="nonzero" opacity="1" stroke="none"/>
<path d="M48.4188 57.786L48.4188 66.4984L48.4188 66.4984L46.238 65.3199L46.238 65.3199L46.238 56.6179L46.238 56.6179" fill="#2e8c01" fill-rule="nonzero" opacity="1" stroke="none"/>
<path d="M48.4213 57.7845L50.5965 56.6179L50.5965 56.6179L50.5965 65.309L50.5965 65.309L48.4213 66.486L48.4213 66.486L48.4213 57.7845" fill="#2e8c01" fill-rule="nonzero" opacity="1" stroke="none"/>
<path d="M23.6393 71.6057L23.6393 80.3181L23.6393 80.3181L21.4585 79.1396L21.4585 79.1396L21.4585 70.4376L21.4585 70.4376" fill="#2e8c01" fill-rule="nonzero" opacity="1" stroke="none"/>
<path d="M23.6417 71.6042L25.8169 70.4376L25.8169 70.4376L25.8169 79.1287L25.8169 79.1287L23.6417 80.3057L23.6417 80.3057L23.6417 71.6042" fill="#36a401" fill-rule="nonzero" opacity="1" stroke="none"/>
<path d="M23.6318 71.6055L25.808 70.4376L25.808 70.4376L23.6318 69.2537L23.6318 69.2537L21.4585 70.4376L21.4585 70.4376L23.6318 71.6055" fill="#3bb500" fill-rule="nonzero" opacity="1" stroke="none"/>
<path d="M39.9152 57.1857L39.9152 65.8981L39.9152 65.8981L37.7344 64.7195L37.7344 64.7195L37.7344 56.0177L37.7344 56.0177" fill="#2e8c01" fill-rule="nonzero" opacity="1" stroke="none"/>
<path d="M39.9176 57.1843L42.0928 56.0177L42.0928 56.0177L42.0928 64.7087L42.0928 64.7087L39.9176 65.8858L39.9176 65.8858L39.9176 57.1843" fill="#36a401" fill-rule="nonzero" opacity="1" stroke="none"/>
<path d="M39.9078 57.1855L42.0839 56.0177L42.0839 56.0177L39.9078 54.8337L39.9078 54.8337L37.7344 56.0177L37.7344 56.0177L39.9078 57.1855" fill="#3bb500" fill-rule="nonzero" opacity="1" stroke="none"/>
<path d="M50.0307 57.1857L50.0307 65.8981L50.0307 65.8981L47.8499 64.7195L47.8499 64.7195L47.8499 56.0177L47.8499 56.0177" fill="#2e8c01" fill-rule="nonzero" opacity="1" stroke="none"/>
<path d="M50.0332 57.1843L52.2084 56.0177L52.2084 56.0177L52.2084 64.7087L52.2084 64.7087L50.0332 65.8858L50.0332 65.8858L50.0332 57.1843" fill="#1eaa00" fill-rule="nonzero" opacity="1" stroke="none"/>
<path d="M50.0233 57.1855L52.1995 56.0177L52.1995 56.0177L50.0233 54.8337L50.0233 54.8337L47.8499 56.0177L47.8499 56.0177L50.0233 57.1855" fill="#3bb500" fill-rule="nonzero" opacity="1" stroke="none"/>
<path d="M45.7335 59.2867L45.7335 67.999L45.7335 67.999L43.5527 66.8205L43.5527 66.8205L43.5527 58.1186L43.5527 58.1186" fill="#2e8c01" fill-rule="nonzero" opacity="1" stroke="none"/>
<path d="M45.736 59.2852L47.9112 58.1186L47.9112 58.1186L47.9112 66.8096L47.9112 66.8096L45.736 67.9867L45.736 67.9867L45.736 59.2852" fill="#36a401" fill-rule="nonzero" opacity="1" stroke="none"/>
<path d="M45.7261 59.2864L47.9023 58.1186L47.9023 58.1186L45.7261 56.9347L45.7261 56.9347L43.5527 58.1186L43.5527 58.1186L45.7261 59.2864" fill="#3bb500" fill-rule="nonzero" opacity="1" stroke="none"/>
<path d="M37.0794 59.8845L37.0794 68.5968L37.0794 68.5968L34.8986 67.4183L34.8986 67.4183L34.8986 58.7164L34.8986 58.7164" fill="#2e8c01" fill-rule="nonzero" opacity="1" stroke="none"/>
<path d="M37.0818 59.883L39.257 58.7164L39.257 58.7164L39.257 67.4075L39.257 67.4075L37.0818 68.5845L37.0818 68.5845L37.0818 59.883" fill="#36a401" fill-rule="nonzero" opacity="1" stroke="none"/>
<path d="M37.0719 59.8843L39.2481 58.7164L39.2481 58.7164L37.0719 57.5325L37.0719 57.5325L34.8986 58.7164L34.8986 58.7164L37.0719 59.8843" fill="#3bb500" fill-rule="nonzero" opacity="1" stroke="none"/>
<path d="M69.7884 59.7996L69.7884 68.5119L69.7884 68.5119L67.6075 67.3334L67.6075 67.3334L67.6075 58.6315L67.6075 58.6315" fill="#2e8c01" fill-rule="nonzero" opacity="1" stroke="none"/>
<path d="M69.7908 59.7981L71.966 58.6315L71.966 58.6315L71.966 67.3225L71.966 67.3225L69.7908 68.4996L69.7908 68.4996L69.7908 59.7981" fill="#36a401" fill-rule="nonzero" opacity="1" stroke="none"/>
<path d="M69.7909 57.3773L69.7909 66.0896L69.7909 66.0896L67.61 64.9111L67.61 64.9111L67.61 56.2092L67.61 56.2092" fill="#2e8c01" fill-rule="nonzero" opacity="1" stroke="none"/>
<path d="M69.7933 57.3758L71.9685 56.2092L71.9685 56.2092L71.9685 64.9002L71.9685 64.9002L69.7933 66.0773L69.7933 66.0773L69.7933 57.3758" fill="#36a401" fill-rule="nonzero" opacity="1" stroke="none"/>
<path d="M69.7834 57.3771L71.9596 56.2092L71.9596 56.2092L69.7834 55.0253L69.7834 55.0253L67.61 56.2092L67.61 56.2092L69.7834 57.3771" fill="#3bb500" fill-rule="nonzero" opacity="1" stroke="none"/>
<path d="M31.9882 62.0569L31.9882 70.7692L31.9882 70.7692L29.8074 69.5907L29.8074 69.5907L29.8074 60.8888L29.8074 60.8888" fill="#2e8c01" fill-rule="nonzero" opacity="1" stroke="none"/>
<path d="M31.9907 62.0554L34.1658 60.8888L34.1658 60.8888L34.1658 69.5799L34.1658 69.5799L31.9907 70.7569L31.9907 70.7569L31.9907 62.0554" fill="#1eaa00" fill-rule="nonzero" opacity="1" stroke="none"/>
<path d="M31.9808 62.0567L34.1569 60.8888L34.1569 60.8888L31.9808 59.7049L31.9808 59.7049L29.8074 60.8888L29.8074 60.8888L31.9808 62.0567" fill="#3bb500" fill-rule="nonzero" opacity="1" stroke="none"/>
<path d="M73.6628 62.0998L73.6628 70.8122L73.6628 70.8122L71.482 69.6337L71.482 69.6337L71.482 60.9318L71.482 60.9318" fill="#9bc01e" fill-rule="nonzero" opacity="1" stroke="none"/>
<path d="M73.6652 62.0984L75.8405 60.9318L75.8405 60.9318L75.8405 69.6228L75.8405 69.6228L73.6652 70.7999L73.6652 70.7999L73.6652 62.0984" fill="#36a401" fill-rule="nonzero" opacity="1" stroke="none"/>
<path d="M73.6554 62.0996L75.8315 60.9318L75.8315 60.9318L73.6554 59.7478L73.6554 59.7478L71.482 60.9318L71.482 60.9318L73.6554 62.0996" fill="#3bb500" fill-rule="nonzero" opacity="1" stroke="none"/>
<path d="M36.0608 63.4925L36.0608 72.2048L36.0608 72.2048L33.8799 71.0263L33.8799 71.0263L33.8799 62.3244L33.8799 62.3244" fill="#2e8c01" fill-rule="nonzero" opacity="1" stroke="none"/>
<path d="M36.0632 63.491L38.2384 62.3244L38.2384 62.3244L38.2384 71.0154L38.2384 71.0154L36.0632 72.1925L36.0632 72.1925L36.0632 63.491" fill="#36a401" fill-rule="nonzero" opacity="1" stroke="none"/>
<path d="M36.0533 63.4922L38.2295 62.3244L38.2295 62.3244L36.0533 61.1405L36.0533 61.1405L33.8799 62.3244L33.8799 62.3244L36.0533 63.4922" fill="#3bb500" fill-rule="nonzero" opacity="1" stroke="none"/>
<path d="M43.5285 62.6519L43.5285 71.3643L43.5285 71.3643L41.3477 70.1858L41.3477 70.1858L41.3477 61.4838L41.3477 61.4838" fill="#2e8c01" fill-rule="nonzero" opacity="1" stroke="none"/>
<path d="M43.5309 62.6504L45.7062 61.4838L45.7062 61.4838L45.7062 70.1749L45.7062 70.1749L43.5309 71.3519L43.5309 71.3519L43.5309 62.6504" fill="#36a401" fill-rule="nonzero" opacity="1" stroke="none"/>
<path d="M43.521 62.6517L45.6972 61.4838L45.6972 61.4838L43.521 60.2999L43.521 60.2999L41.3477 61.4838L41.3477 61.4838L43.521 62.6517" fill="#3bb500" fill-rule="nonzero" opacity="1" stroke="none"/>
<path d="M32.4395 61.4726L32.4395 70.1849L32.4395 70.1849L30.2587 69.0064L30.2587 69.0064L30.2587 60.3045L30.2587 60.3045" fill="#2e8c01" fill-rule="nonzero" opacity="1" stroke="none"/>
<path d="M32.4419 61.4711L34.6171 60.3045L34.6171 60.3045L34.6171 68.9955L34.6171 68.9955L32.4419 70.1726L32.4419 70.1726L32.4419 61.4711" fill="#36a401" fill-rule="nonzero" opacity="1" stroke="none"/>
<path d="M32.432 61.4723L34.6082 60.3045L34.6082 60.3045L32.432 59.1205L32.432 59.1205L30.2587 60.3045L30.2587 60.3045L32.432 61.4723" fill="#3bb500" fill-rule="nonzero" opacity="1" stroke="none"/>
<path d="M39.7792 66.5168L39.7792 75.2292L39.7792 75.2292L37.5983 74.0507L37.5983 74.0507L37.5983 65.3488L37.5983 65.3488" fill="#2e8c01" fill-rule="nonzero" opacity="1" stroke="none"/>
<path d="M39.7816 66.5154L41.9568 65.3488L41.9568 65.3488L41.9568 74.0398L41.9568 74.0398L39.7816 75.2169L39.7816 75.2169L39.7816 66.5154" fill="#1eaa00" fill-rule="nonzero" opacity="1" stroke="none"/>
<path d="M39.7717 66.5166L41.9479 65.3488L41.9479 65.3488L39.7717 64.1648L39.7717 64.1648L37.5983 65.3488L37.5983 65.3488L39.7717 66.5166" fill="#22c100" fill-rule="nonzero" opacity="1" stroke="none"/>
<path d="M39.7817 64.0945L39.7817 72.8069L39.7817 72.8069L37.6008 71.6284L37.6008 71.6284L37.6008 62.9265L37.6008 62.9265" fill="#2e8c01" fill-rule="nonzero" opacity="1" stroke="none"/>
<path d="M39.7841 64.0931L41.9593 62.9265L41.9593 62.9265L41.9593 71.6175L41.9593 71.6175L39.7841 72.7946L39.7841 72.7946L39.7841 64.0931" fill="#36a401" fill-rule="nonzero" opacity="1" stroke="none"/>
<path d="M39.7742 64.0943L41.9504 62.9265L41.9504 62.9265L39.7742 61.7425L39.7742 61.7425L37.6008 62.9265L37.6008 62.9265L39.7742 64.0943" fill="#3bb500" fill-rule="nonzero" opacity="1" stroke="none"/>
<path d="M35.0715 66.7694L35.0715 75.4817L35.0715 75.4817L32.8907 74.3032L32.8907 74.3032L32.8907 65.6013L32.8907 65.6013" fill="#2e8c01" fill-rule="nonzero" opacity="1" stroke="none"/>
<path d="M35.0739 66.7679L37.2491 65.6013L37.2491 65.6013L37.2491 74.2923L37.2491 74.2923L35.0739 75.4694L35.0739 75.4694L35.0739 66.7679" fill="#36a401" fill-rule="nonzero" opacity="1" stroke="none"/>
<path d="M35.064 66.7691L37.2402 65.6013L37.2402 65.6013L35.064 64.4174L35.064 64.4174L32.8907 65.6013L32.8907 65.6013L35.064 66.7691" fill="#3bb500" fill-rule="nonzero" opacity="1" stroke="none"/>
<path d="M72.6647 65.3767L72.6647 74.0891L72.6647 74.0891L70.4839 72.9106L70.4839 72.9106L70.4839 64.2087L70.4839 64.2087" fill="#2e8c01" fill-rule="nonzero" opacity="1" stroke="none"/>
<path d="M72.6671 65.3753L74.8423 64.2087L74.8423 64.2087L74.8423 72.8997L74.8423 72.8997L72.6671 74.0768L72.6671 74.0768L72.6671 65.3753" fill="#36a401" fill-rule="nonzero" opacity="1" stroke="none"/>
<path d="M72.6572 65.3765L74.8334 64.2087L74.8334 64.2087L72.6572 63.0247L72.6572 63.0247L70.4839 64.2087L70.4839 64.2087L72.6572 65.3765" fill="#22c100" fill-rule="nonzero" opacity="1" stroke="none"/>
<path d="M72.6647 58.6606L72.6647 67.373L72.6647 67.373L70.4839 66.1944L70.4839 66.1944L70.4839 57.4926L70.4839 57.4926" fill="#2e8c01" fill-rule="nonzero" opacity="1" stroke="none"/>
<path d="M72.6671 58.6592L74.8423 57.4926L74.8423 57.4926L74.8423 66.1836L74.8423 66.1836L72.6671 67.3606L72.6671 67.3606L72.6671 58.6592" fill="#36a401" fill-rule="nonzero" opacity="1" stroke="none"/>
<path d="M72.6572 58.6604L74.8334 57.4926L74.8334 57.4926L72.6572 56.3086L72.6572 56.3086L70.4839 57.4926L70.4839 57.4926L72.6572 58.6604" fill="#3bb500" fill-rule="nonzero" opacity="1" stroke="none"/>
<path d="M31.7636 65.5934L31.7636 74.3058L31.7636 74.3058L29.5828 73.1272L29.5828 73.1272L29.5828 64.4254L29.5828 64.4254" fill="#2e8c01" fill-rule="nonzero" opacity="1" stroke="none"/>
<path d="M31.766 65.592L33.9412 64.4254L33.9412 64.4254L33.9412 73.1164L33.9412 73.1164L31.766 74.2935L31.766 74.2935L31.766 65.592" fill="#36a401" fill-rule="nonzero" opacity="1" stroke="none"/>
<path d="M31.7561 65.5932L33.9323 64.4254L33.9323 64.4254L31.7561 63.2414L31.7561 63.2414L29.5828 64.4254L29.5828 64.4254L31.7561 65.5932" fill="#3bb500" fill-rule="nonzero" opacity="1" stroke="none"/>
<path d="M28.8197 69.682L28.8197 78.3944L28.8197 78.3944L26.6389 77.2158L26.6389 77.2158L26.6389 68.5139L26.6389 68.5139" fill="#2e8c01" fill-rule="nonzero" opacity="1" stroke="none"/>
<path d="M28.8222 69.6806L30.9973 68.5139L30.9973 68.5139L30.9973 77.205L30.9973 77.205L28.8222 78.382L28.8222 78.382L28.8222 69.6806" fill="#36a401" fill-rule="nonzero" opacity="1" stroke="none"/>
<path d="M28.8123 69.6818L30.9884 68.5139L30.9884 68.5139L28.8123 67.33L28.8123 67.33L26.6389 68.5139L26.6389 68.5139L28.8123 69.6818" fill="#3bb500" fill-rule="nonzero" opacity="1" stroke="none"/>
<path d="M64.4769 65.9481L64.4769 74.6605L64.4769 74.6605L62.2961 73.482L62.2961 73.482L62.2961 64.7801L62.2961 64.7801" fill="#198c00" fill-rule="nonzero" opacity="1" stroke="none"/>
<path d="M64.4793 65.9467L66.6545 64.7801L66.6545 64.7801L66.6545 73.4711L66.6545 73.4711L64.4793 74.6482L64.4793 74.6482L64.4793 65.9467" fill="#1eaa00" fill-rule="nonzero" opacity="1" stroke="none"/>
<path d="M64.4734 60.1815L64.4734 68.8938L64.4734 68.8938L62.2926 67.7153L62.2926 67.7153L62.2926 59.0134L62.2926 59.0134" fill="#2e8c01" fill-rule="nonzero" opacity="1" stroke="none"/>
<path d="M64.4758 60.18L66.651 59.0134L66.651 59.0134L66.651 67.7044L66.651 67.7044L64.4758 68.8815L64.4758 68.8815L64.4758 60.18" fill="#36a401" fill-rule="nonzero" opacity="1" stroke="none"/>
<path d="M64.4659 60.1813L66.6421 59.0134L66.6421 59.0134L64.4659 57.8294L64.4659 57.8294L62.2926 59.0134L62.2926 59.0134L64.4659 60.1813" fill="#3bb500" fill-rule="nonzero" opacity="1" stroke="none"/>
<path d="M46.16 70.9508L46.16 79.6632L46.16 79.6632L43.9792 78.4847L43.9792 78.4847L43.9792 69.7828L43.9792 69.7828" fill="#2e8c01" fill-rule="nonzero" opacity="1" stroke="none"/>
<path d="M46.1625 70.9494L48.3377 69.7828L48.3377 69.7828L48.3377 78.4738L48.3377 78.4738L46.1625 79.6509L46.1625 79.6509L46.1625 70.9494" fill="#1eaa00" fill-rule="nonzero" opacity="1" stroke="none"/>
<path d="M46.1565 65.1842L46.1565 73.8965L46.1565 73.8965L43.9757 72.718L43.9757 72.718L43.9757 64.0161L43.9757 64.0161" fill="#2e8c01" fill-rule="nonzero" opacity="1" stroke="none"/>
<path d="M46.1589 65.1827L48.3341 64.0161L48.3341 64.0161L48.3341 72.7071L48.3341 72.7071L46.1589 73.8842L46.1589 73.8842L46.1589 65.1827" fill="#36a401" fill-rule="nonzero" opacity="1" stroke="none"/>
<path d="M46.149 65.184L48.3252 64.0161L48.3252 64.0161L46.149 62.8321L46.149 62.8321L43.9757 64.0161L43.9757 64.0161L46.149 65.184" fill="#3bb500" fill-rule="nonzero" opacity="1" stroke="none"/>
<path d="M61.3078 55.1746L61.3078 63.887L61.3078 63.887L59.127 62.7085L59.127 62.7085L59.127 54.0066L59.127 54.0066" fill="#2e8c01" fill-rule="nonzero" opacity="1" stroke="none"/>
<path d="M61.3103 55.1732L63.4855 54.0066L63.4855 54.0066L63.4855 62.6976L63.4855 62.6976L61.3103 63.8747L61.3103 63.8747L61.3103 55.1732" fill="#36a401" fill-rule="nonzero" opacity="1" stroke="none"/>
<path d="M61.3004 55.1744L63.4766 54.0066L63.4766 54.0066L61.3004 52.8226L61.3004 52.8226L59.127 54.0066L59.127 54.0066L61.3004 55.1744" fill="#3bb500" fill-rule="nonzero" opacity="1" stroke="none"/>
<path d="M58.364 59.2632L58.364 67.9756L58.364 67.9756L56.1832 66.7971L56.1832 66.7971L56.1832 58.0951L56.1832 58.0951" fill="#2e8c01" fill-rule="nonzero" opacity="1" stroke="none"/>
<path d="M58.3664 59.2618L60.5416 58.0951L60.5416 58.0951L60.5416 66.7862L60.5416 66.7862L58.3664 67.9633L58.3664 67.9633L58.3664 59.2618" fill="#36a401" fill-rule="nonzero" opacity="1" stroke="none"/>
<path d="M58.3566 59.263L60.5327 58.0951L60.5327 58.0951L58.3566 56.9112L58.3566 56.9112L56.1832 58.0951L56.1832 58.0951L58.3566 59.263" fill="#3bb500" fill-rule="nonzero" opacity="1" stroke="none"/>
<path d="M52.321 60.6988L52.321 69.4112L52.321 69.4112L50.1402 68.2326L50.1402 68.2326L50.1402 59.5308L50.1402 59.5308" fill="#198c00" fill-rule="nonzero" opacity="1" stroke="none"/>
<path d="M52.3234 60.6974L54.4986 59.5308L54.4986 59.5308L54.4986 68.2218L54.4986 68.2218L52.3234 69.3988L52.3234 69.3988L52.3234 60.6974" fill="#36a401" fill-rule="nonzero" opacity="1" stroke="none"/>
<path d="M52.3136 60.6986L54.4897 59.5308L54.4897 59.5308L52.3136 58.3468L52.3136 58.3468L50.1402 59.5308L50.1402 59.5308L52.3136 60.6986" fill="#3bb500" fill-rule="nonzero" opacity="1" stroke="none"/>
<path d="M66.1549 63.7232L66.1549 72.4355L66.1549 72.4355L63.9741 71.257L63.9741 71.257L63.9741 62.5551L63.9741 62.5551" fill="#198c00" fill-rule="nonzero" opacity="1" stroke="none"/>
<path d="M66.1574 63.7217L68.3326 62.5551L68.3326 62.5551L68.3326 71.2461L68.3326 71.2461L66.1574 72.4232L66.1574 72.4232L66.1574 63.7217" fill="#36a401" fill-rule="nonzero" opacity="1" stroke="none"/>
<path d="M66.1475 63.723L68.3237 62.5551L68.3237 62.5551L66.1475 61.3712L66.1475 61.3712L63.9741 62.5551L63.9741 62.5551L66.1475 63.723" fill="#22c100" fill-rule="nonzero" opacity="1" stroke="none"/>
<path d="M66.1575 61.3009L66.1575 70.0132L66.1575 70.0132L63.9766 68.8347L63.9766 68.8347L63.9766 60.1328L63.9766 60.1328" fill="#2e8c01" fill-rule="nonzero" opacity="1" stroke="none"/>
<path d="M66.1599 61.2994L68.3351 60.1328L68.3351 60.1328L68.3351 68.8238L68.3351 68.8238L66.1599 70.0009L66.1599 70.0009L66.1599 61.2994" fill="#36a401" fill-rule="nonzero" opacity="1" stroke="none"/>
<path d="M66.15 61.3007L68.3262 60.1328L68.3262 60.1328L66.15 58.9489L66.15 58.9489L63.9766 60.1328L63.9766 60.1328L66.15 61.3007" fill="#3bb500" fill-rule="nonzero" opacity="1" stroke="none"/>
<path d="M61.4473 63.9757L61.4473 72.6881L61.4473 72.6881L59.2664 71.5095L59.2664 71.5095L59.2664 62.8077L59.2664 62.8077" fill="#2e8c01" fill-rule="nonzero" opacity="1" stroke="none"/>
<path d="M61.4497 63.9742L63.6249 62.8077L63.6249 62.8077L63.6249 71.4987L63.6249 71.4987L61.4497 72.6757L61.4497 72.6757L61.4497 63.9742" fill="#36a401" fill-rule="nonzero" opacity="1" stroke="none"/>
<path d="M61.4398 63.9755L63.616 62.8077L63.616 62.8077L61.4398 61.6237L61.4398 61.6237L59.2664 62.8077L59.2664 62.8077L61.4398 63.9755" fill="#3bb500" fill-rule="nonzero" opacity="1" stroke="none"/>
<path d="M51.3228 63.9757L51.3228 72.6881L51.3228 72.6881L49.142 71.5095L49.142 71.5095L49.142 62.8077L49.142 62.8077" fill="#2e8c01" fill-rule="nonzero" opacity="1" stroke="none"/>
<path d="M51.3252 63.9742L53.5004 62.8077L53.5004 62.8077L53.5004 71.4987L53.5004 71.4987L51.3252 72.6757L51.3252 72.6757L51.3252 63.9742" fill="#36a401" fill-rule="nonzero" opacity="1" stroke="none"/>
<path d="M51.3154 63.9755L53.4915 62.8077L53.4915 62.8077L51.3154 61.6237L51.3154 61.6237L49.142 62.8077L49.142 62.8077L51.3154 63.9755" fill="#22c100" fill-rule="nonzero" opacity="1" stroke="none"/>
<path d="M51.3228 57.2596L51.3228 65.9719L51.3228 65.9719L49.142 64.7934L49.142 64.7934L49.142 56.0915L49.142 56.0915" fill="#2e8c01" fill-rule="nonzero" opacity="1" stroke="none"/>
<path d="M51.3252 57.2581L53.5004 56.0915L53.5004 56.0915L53.5004 64.7825L53.5004 64.7825L51.3252 65.9596L51.3252 65.9596L51.3252 57.2581" fill="#36a401" fill-rule="nonzero" opacity="1" stroke="none"/>
<path d="M51.3154 57.2593L53.4915 56.0915L53.4915 56.0915L51.3154 54.9076L51.3154 54.9076L49.142 56.0915L49.142 56.0915L51.3154 57.2593" fill="#3bb500" fill-rule="nonzero" opacity="1" stroke="none"/>
<path d="M58.1394 62.7998L58.1394 71.5121L58.1394 71.5121L55.9586 70.3336L55.9586 70.3336L55.9586 61.6317L55.9586 61.6317" fill="#2e8c01" fill-rule="nonzero" opacity="1" stroke="none"/>
<path d="M58.1418 62.7983L60.317 61.6317L60.317 61.6317L60.317 70.3227L60.317 70.3227L58.1418 71.4998L58.1418 71.4998L58.1418 62.7983" fill="#36a401" fill-rule="nonzero" opacity="1" stroke="none"/>
<path d="M58.1319 62.7995L60.3081 61.6317L60.3081 61.6317L58.1319 60.4477L58.1319 60.4477L55.9586 61.6317L55.9586 61.6317L58.1319 62.7995" fill="#3bb500" fill-rule="nonzero" opacity="1" stroke="none"/>
<path d="M55.1955 66.8883L55.1955 75.6007L55.1955 75.6007L53.0147 74.4222L53.0147 74.4222L53.0147 65.7202L53.0147 65.7202" fill="#2e8c01" fill-rule="nonzero" opacity="1" stroke="none"/>
<path d="M55.198 66.8869L57.3731 65.7202L57.3731 65.7202L57.3731 74.4113L57.3731 74.4113L55.198 75.5884L55.198 75.5884L55.198 66.8869" fill="#36a401" fill-rule="nonzero" opacity="1" stroke="none"/>
<path d="M55.1881 66.8881L57.3642 65.7202L57.3642 65.7202L55.1881 64.5363L55.1881 64.5363L53.0147 65.7202L53.0147 65.7202L55.1881 66.8881" fill="#3bb500" fill-rule="nonzero" opacity="1" stroke="none"/>
<path d="M49.1525 68.3239L49.1525 77.0363L49.1525 77.0363L46.9717 75.8577L46.9717 75.8577L46.9717 67.1559L46.9717 67.1559" fill="#2e8c01" fill-rule="nonzero" opacity="1" stroke="none"/>
<path d="M49.1549 68.3225L51.3301 67.1559L51.3301 67.1559L51.3301 75.8469L51.3301 75.8469L49.1549 77.024L49.1549 77.024L49.1549 68.3225" fill="#36a401" fill-rule="nonzero" opacity="1" stroke="none"/>
<path d="M49.1451 68.3237L51.3212 67.1559L51.3212 67.1559L49.1451 65.9719L49.1451 65.9719L46.9717 67.1559L46.9717 67.1559L49.1451 68.3237" fill="#3bb500" fill-rule="nonzero" opacity="1" stroke="none"/>
<path d="M62.9865 71.3483L62.9865 80.0607L62.9865 80.0607L60.8056 78.8821L60.8056 78.8821L60.8056 70.1803L60.8056 70.1803" fill="#198c00" fill-rule="nonzero" opacity="1" stroke="none"/>
<path d="M62.9889 71.3468L65.1641 70.1803L65.1641 70.1803L65.1641 78.8713L65.1641 78.8713L62.9889 80.0483L62.9889 80.0483L62.9889 71.3468" fill="#1eaa00" fill-rule="nonzero" opacity="1" stroke="none"/>
<path d="M62.979 71.3481L65.1552 70.1803L65.1552 70.1803L62.979 68.9963L62.979 68.9963L60.8056 70.1803L60.8056 70.1803L62.979 71.3481" fill="#22c100" fill-rule="nonzero" opacity="1" stroke="none"/>
<path d="M62.989 68.926L62.989 77.6384L62.989 77.6384L60.8081 76.4598L60.8081 76.4598L60.8081 67.758L60.8081 67.758" fill="#2e8c01" fill-rule="nonzero" opacity="1" stroke="none"/>
<path d="M62.9914 68.9245L65.1666 67.758L65.1666 67.758L65.1666 76.449L65.1666 76.449L62.9914 77.626L62.9914 77.626L62.9914 68.9245" fill="#36a401" fill-rule="nonzero" opacity="1" stroke="none"/>
<path d="M62.9815 68.9258L65.1577 67.758L65.1577 67.758L62.9815 66.574L62.9815 66.574L60.8081 67.758L60.8081 67.758L62.9815 68.9258" fill="#3bb500" fill-rule="nonzero" opacity="1" stroke="none"/>
<path d="M47.4102 71.8589L47.4102 80.5712L47.4102 80.5712L45.2293 79.3927L45.2293 79.3927L45.2293 70.6908L45.2293 70.6908" fill="#2e8c01" fill-rule="nonzero" opacity="1" stroke="none"/>
<path d="M47.4126 71.8574L49.5878 70.6908L49.5878 70.6908L49.5878 79.3818L49.5878 79.3818L47.4126 80.5589L47.4126 80.5589L47.4126 71.8574" fill="#1eaa00" fill-rule="nonzero" opacity="1" stroke="none"/>
<path d="M47.4027 71.8586L49.5789 70.6908L49.5789 70.6908L47.4027 69.5069L47.4027 69.5069L45.2293 70.6908L45.2293 70.6908L47.4027 71.8586" fill="#3bb500" fill-rule="nonzero" opacity="1" stroke="none"/>
<path d="M41.3671 73.2944L41.3671 82.0068L41.3671 82.0068L39.1863 80.8283L39.1863 80.8283L39.1863 72.1264L39.1863 72.1264" fill="#198c00" fill-rule="nonzero" opacity="1" stroke="none"/>
<path d="M41.3696 73.293L43.5448 72.1264L43.5448 72.1264L43.5448 80.8174L43.5448 80.8174L41.3696 81.9945L41.3696 81.9945L41.3696 73.293" fill="#36a401" fill-rule="nonzero" opacity="1" stroke="none"/>
<path d="M41.3597 73.2942L43.5358 72.1264L43.5358 72.1264L41.3597 70.9424L41.3597 70.9424L39.1863 72.1264L39.1863 72.1264L41.3597 73.2942" fill="#3bb500" fill-rule="nonzero" opacity="1" stroke="none"/>
<path d="M51.4827 73.2944L51.4827 82.0068L51.4827 82.0068L49.3019 80.8283L49.3019 80.8283L49.3019 72.1264L49.3019 72.1264" fill="#2e8c01" fill-rule="nonzero" opacity="1" stroke="none"/>
<path d="M51.4851 73.293L53.6603 72.1264L53.6603 72.1264L53.6603 80.8174L53.6603 80.8174L51.4851 81.9945L51.4851 81.9945L51.4851 73.293" fill="#36a401" fill-rule="nonzero" opacity="1" stroke="none"/>
<path d="M51.4752 73.2942L53.6514 72.1264L53.6514 72.1264L51.4752 70.9424L51.4752 70.9424L49.3019 72.1264L49.3019 72.1264L51.4752 73.2942" fill="#3bb500" fill-rule="nonzero" opacity="1" stroke="none"/>
<path d="M58.9505 72.4538L58.9505 81.1663L58.9505 81.1663L56.7697 79.9877L56.7697 79.9877L56.7697 71.2858L56.7697 71.2858" fill="#2e8c01" fill-rule="nonzero" opacity="1" stroke="none"/>
<path d="M58.9529 72.4524L61.1281 71.2858L61.1281 71.2858L61.1281 79.9769L61.1281 79.9769L58.9529 81.1539L58.9529 81.1539L58.9529 72.4524" fill="#1eaa00" fill-rule="nonzero" opacity="1" stroke="none"/>
<path d="M58.943 72.4536L61.1192 71.2858L61.1192 71.2858L58.943 70.1018L58.943 70.1018L56.7697 71.2858L56.7697 71.2858L58.943 72.4536" fill="#22c100" fill-rule="nonzero" opacity="1" stroke="none"/>
<path d="M58.9469 66.6872L58.9469 75.3996L58.9469 75.3996L56.7661 74.221L56.7661 74.221L56.7661 65.5191L56.7661 65.5191" fill="#2e8c01" fill-rule="nonzero" opacity="1" stroke="none"/>
<path d="M58.9493 66.6857L61.1246 65.5191L61.1246 65.5191L61.1246 74.2102L61.1246 74.2102L58.9493 75.3872L58.9493 75.3872L58.9493 66.6857" fill="#36a401" fill-rule="nonzero" opacity="1" stroke="none"/>
<path d="M58.9395 66.687L61.1156 65.5191L61.1156 65.5191L58.9395 64.3351L58.9395 64.3351L56.7661 65.5191L56.7661 65.5191L58.9395 66.687" fill="#3bb500" fill-rule="nonzero" opacity="1" stroke="none"/>
<path d="M47.865 77.0412L47.865 85.7536L47.865 85.7536L45.6842 84.5751L45.6842 84.5751L45.6842 75.8731L45.6842 75.8731" fill="#198c00" fill-rule="nonzero" opacity="1" stroke="none"/>
<path d="M47.8674 77.0397L50.0426 75.8731L50.0426 75.8731L50.0426 84.5642L50.0426 84.5642L47.8674 85.7412L47.8674 85.7412L47.8674 77.0397" fill="#1eaa00" fill-rule="nonzero" opacity="1" stroke="none"/>
<path d="M47.8614 71.2745L47.8614 79.9869L47.8614 79.9869L45.6806 78.8084L45.6806 78.8084L45.6806 70.1064L45.6806 70.1064" fill="#2e8c01" fill-rule="nonzero" opacity="1" stroke="none"/>
<path d="M47.8639 71.273L50.0391 70.1064L50.0391 70.1064L50.0391 78.7975L50.0391 78.7975L47.8639 79.9745L47.8639 79.9745L47.8639 71.273" fill="#36a401" fill-rule="nonzero" opacity="1" stroke="none"/>
<path d="M47.854 71.2743L50.0301 70.1064L50.0301 70.1064L47.854 68.9225L47.854 68.9225L45.6806 70.1064L45.6806 70.1064L47.854 71.2743" fill="#3bb500" fill-rule="nonzero" opacity="1" stroke="none"/>
<path d="M55.2011 76.3188L55.2011 85.0312L55.2011 85.0312L53.0202 83.8526L53.0202 83.8526L53.0202 75.1508L53.0202 75.1508" fill="#198c00" fill-rule="nonzero" opacity="1" stroke="none"/>
<path d="M55.2035 76.3174L57.3787 75.1508L57.3787 75.1508L57.3787 83.8418L57.3787 83.8418L55.2035 85.0189L55.2035 85.0189L55.2035 76.3174" fill="#1eaa00" fill-rule="nonzero" opacity="1" stroke="none"/>
<path d="M55.1936 76.3186L57.3698 75.1508L57.3698 75.1508L55.1936 73.9668L55.1936 73.9668L53.0202 75.1508L53.0202 75.1508L55.1936 76.3186" fill="#22c100" fill-rule="nonzero" opacity="1" stroke="none"/>
<path d="M55.2036 73.8965L55.2036 82.6089L55.2036 82.6089L53.0228 81.4303L53.0228 81.4303L53.0228 72.7285L53.0228 72.7285" fill="#2e8c01" fill-rule="nonzero" opacity="1" stroke="none"/>
<path d="M55.206 73.8951L57.3813 72.7285L57.3813 72.7285L57.3813 81.4195L57.3813 81.4195L55.206 82.5966L55.206 82.5966L55.206 73.8951" fill="#1eaa00" fill-rule="nonzero" opacity="1" stroke="none"/>
<path d="M55.1962 73.8963L57.3723 72.7285L57.3723 72.7285L55.1962 71.5445L55.1962 71.5445L53.0228 72.7285L53.0228 72.7285L55.1962 73.8963" fill="#3bb500" fill-rule="nonzero" opacity="1" stroke="none"/>
<path d="M50.4935 76.5713L50.4935 85.2837L50.4935 85.2837L48.3126 84.1052L48.3126 84.1052L48.3126 75.4033L48.3126 75.4033" fill="#2e8c01" fill-rule="nonzero" opacity="1" stroke="none"/>
<path d="M50.4959 76.5699L52.671 75.4033L52.671 75.4033L52.671 84.0943L52.671 84.0943L50.4959 85.2714L50.4959 85.2714L50.4959 76.5699" fill="#36a401" fill-rule="nonzero" opacity="1" stroke="none"/>
<path d="M50.486 76.5711L52.6622 75.4033L52.6622 75.4033L50.486 74.2193L50.486 74.2193L48.3126 75.4033L48.3126 75.4033L50.486 76.5711" fill="#3bb500" fill-rule="nonzero" opacity="1" stroke="none"/>
<path d="M40.369 76.5713L40.369 85.2837L40.369 85.2837L38.1882 84.1052L38.1882 84.1052L38.1882 75.4033L38.1882 75.4033" fill="#2e8c01" fill-rule="nonzero" opacity="1" stroke="none"/>
<path d="M40.3714 76.5699L42.5466 75.4033L42.5466 75.4033L42.5466 84.0943L42.5466 84.0943L40.3714 85.2714L40.3714 85.2714L40.3714 76.5699" fill="#36a401" fill-rule="nonzero" opacity="1" stroke="none"/>
<path d="M40.3615 76.5711L42.5377 75.4033L42.5377 75.4033L40.3615 74.2193L40.3615 74.2193L38.1882 75.4033L38.1882 75.4033L40.3615 76.5711" fill="#22c100" fill-rule="nonzero" opacity="1" stroke="none"/>
<path d="M40.369 69.8552L40.369 78.5675L40.369 78.5675L38.1882 77.389L38.1882 77.389L38.1882 68.6871L38.1882 68.6871" fill="#2e8c01" fill-rule="nonzero" opacity="1" stroke="none"/>
<path d="M40.3714 69.8537L42.5466 68.6871L42.5466 68.6871L42.5466 77.3782L42.5466 77.3782L40.3714 78.5552L40.3714 78.5552L40.3714 69.8537" fill="#36a401" fill-rule="nonzero" opacity="1" stroke="none"/>
<path d="M40.3615 69.855L42.5377 68.6871L42.5377 68.6871L40.3615 67.5032L40.3615 67.5032L38.1882 68.6871L38.1882 68.6871L40.3615 69.855" fill="#3bb500" fill-rule="nonzero" opacity="1" stroke="none"/>
<path d="M47.1855 75.3954L47.1855 84.1077L47.1855 84.1077L45.0047 82.9292L45.0047 82.9292L45.0047 74.2273L45.0047 74.2273" fill="#2e8c01" fill-rule="nonzero" opacity="1" stroke="none"/>
<path d="M47.188 75.3939L49.3631 74.2273L49.3631 74.2273L49.3631 82.9183L49.3631 82.9183L47.188 84.0954L47.188 84.0954L47.188 75.3939" fill="#36a401" fill-rule="nonzero" opacity="1" stroke="none"/>
<path d="M47.1781 75.3952L49.3542 74.2273L49.3542 74.2273L47.1781 73.0434L47.1781 73.0434L45.0047 74.2273L45.0047 74.2273L47.1781 75.3952" fill="#3bb500" fill-rule="nonzero" opacity="1" stroke="none"/>
<path d="M44.2417 79.484L44.2417 88.1963L44.2417 88.1963L42.0608 87.0178L42.0608 87.0178L42.0608 78.3159L42.0608 78.3159" fill="#2e8c01" fill-rule="nonzero" opacity="1" stroke="none"/>
<path d="M44.2441 79.4825L46.4193 78.3159L46.4193 78.3159L46.4193 87.0069L46.4193 87.0069L44.2441 88.184L44.2441 88.184L44.2441 79.4825" fill="#1eaa00" fill-rule="nonzero" opacity="1" stroke="none"/>
<path d="M44.2342 79.4838L46.4104 78.3159L46.4104 78.3159L44.2342 77.132L44.2342 77.132L42.0608 78.3159L42.0608 78.3159L44.2342 79.4838" fill="#3bb500" fill-rule="nonzero" opacity="1" stroke="none"/>
<path d="M38.1986 80.9196L38.1986 89.6319L38.1986 89.6319L36.0178 88.4534L36.0178 88.4534L36.0178 79.7515L36.0178 79.7515" fill="#2e8c01" fill-rule="nonzero" opacity="1" stroke="none"/>
<path d="M38.2011 80.9181L40.3763 79.7515L40.3763 79.7515L40.3763 88.4425L40.3763 88.4425L38.2011 89.6196L38.2011 89.6196L38.2011 80.9181" fill="#36a401" fill-rule="nonzero" opacity="1" stroke="none"/>
<path d="M38.1912 80.9193L40.3674 79.7515L40.3674 79.7515L38.1912 78.5675L38.1912 78.5675L36.0178 79.7515L36.0178 79.7515L38.1912 80.9193" fill="#3bb500" fill-rule="nonzero" opacity="1" stroke="none"/>
<path d="M48.3142 80.9196L48.3142 89.6319L48.3142 89.6319L46.1334 88.4534L46.1334 88.4534L46.1334 79.7515L46.1334 79.7515" fill="#2e8c01" fill-rule="nonzero" opacity="1" stroke="none"/>
<path d="M48.3166 80.9181L50.4918 79.7515L50.4918 79.7515L50.4918 88.4425L50.4918 88.4425L48.3166 89.6196L48.3166 89.6196L48.3166 80.9181" fill="#36a401" fill-rule="nonzero" opacity="1" stroke="none"/>
<path d="M48.3067 80.9193L50.4829 79.7515L50.4829 79.7515L48.3067 78.5675L48.3067 78.5675L46.1334 79.7515L46.1334 79.7515L48.3067 80.9193" fill="#3bb500" fill-rule="nonzero" opacity="1" stroke="none"/>
<path d="M55.782 80.079L55.782 88.7914L55.782 88.7914L53.6012 87.6128L53.6012 87.6128L53.6012 78.9109L53.6012 78.9109" fill="#2e8c01" fill-rule="nonzero" opacity="1" stroke="none"/>
<path d="M55.7844 80.0775L57.9596 78.9109L57.9596 78.9109L57.9596 87.602L57.9596 87.602L55.7844 88.779L55.7844 88.779L55.7844 80.0775" fill="#36a401" fill-rule="nonzero" opacity="1" stroke="none"/>
<path d="M55.7745 80.0788L57.9507 78.9109L57.9507 78.9109L55.7745 77.727L55.7745 77.727L53.6012 78.9109L53.6012 78.9109L55.7745 80.0788" fill="#22c100" fill-rule="nonzero" opacity="1" stroke="none"/>
<path d="M55.7784 74.3123L55.7784 83.0247L55.7784 83.0247L53.5976 81.8461L53.5976 81.8461L53.5976 73.1442L53.5976 73.1442" fill="#2e8c01" fill-rule="nonzero" opacity="1" stroke="none"/>
<path d="M55.7808 74.3108L57.9561 73.1442L57.9561 73.1442L57.9561 81.8353L57.9561 81.8353L55.7808 83.0123L55.7808 83.0123L55.7808 74.3108" fill="#36a401" fill-rule="nonzero" opacity="1" stroke="none"/>
<path d="M55.771 74.3121L57.9471 73.1442L57.9471 73.1442L55.771 71.9603L55.771 71.9603L53.5976 73.1442L53.5976 73.1442L55.771 74.3121" fill="#3bb500" fill-rule="nonzero" opacity="1" stroke="none"/>
<path d="M44.6965 84.6663L44.6965 93.3787L44.6965 93.3787L42.5157 92.2002L42.5157 92.2002L42.5157 83.4983L42.5157 83.4983" fill="#2e8c01" fill-rule="nonzero" opacity="1" stroke="none"/>
<path d="M44.6989 84.6648L46.8741 83.4983L46.8741 83.4983L46.8741 92.1893L46.8741 92.1893L44.6989 93.3663L44.6989 93.3663L44.6989 84.6648" fill="#36a401" fill-rule="nonzero" opacity="1" stroke="none"/>
<path d="M44.6929 78.8997L44.6929 87.612L44.6929 87.612L42.5121 86.4335L42.5121 86.4335L42.5121 77.7315L42.5121 77.7315" fill="#2e8c01" fill-rule="nonzero" opacity="1" stroke="none"/>
<path d="M44.6954 78.8981L46.8706 77.7315L46.8706 77.7315L46.8706 86.4226L46.8706 86.4226L44.6954 87.5996L44.6954 87.5996L44.6954 78.8981" fill="#36a401" fill-rule="nonzero" opacity="1" stroke="none"/>
<path d="M44.6855 78.8994L46.8616 77.7315L46.8616 77.7315L44.6855 76.5476L44.6855 76.5476L42.5121 77.7315L42.5121 77.7315L44.6855 78.8994" fill="#3bb500" fill-rule="nonzero" opacity="1" stroke="none"/>
<path d="M32.1812 77.1427L32.1812 85.8551L32.1812 85.8551L30.0004 84.6766L30.0004 84.6766L30.0004 75.9747L30.0004 75.9747" fill="#2e8c01" fill-rule="nonzero" opacity="1" stroke="none"/>
<path d="M32.1836 77.1413L34.3589 75.9747L34.3589 75.9747L34.3589 84.6657L34.3589 84.6657L32.1836 85.8428L32.1836 85.8428L32.1836 77.1413" fill="#36a401" fill-rule="nonzero" opacity="1" stroke="none"/>
<path d="M32.1777 71.3761L32.1777 80.0884L32.1777 80.0884L29.9969 78.9099L29.9969 78.9099L29.9969 70.208L29.9969 70.208" fill="#2e8c01" fill-rule="nonzero" opacity="1" stroke="none"/>
<path d="M32.1801 71.3746L34.3553 70.208L34.3553 70.208L34.3553 78.899L34.3553 78.899L32.1801 80.0761L32.1801 80.0761L32.1801 71.3746" fill="#36a401" fill-rule="nonzero" opacity="1" stroke="none"/>
<path d="M32.1702 71.3759L34.3464 70.208L34.3464 70.208L32.1702 69.024L32.1702 69.024L29.9969 70.208L29.9969 70.208L32.1702 71.3759" fill="#3bb500" fill-rule="nonzero" opacity="1" stroke="none"/>
<path d="M52.0326 83.9439L52.0326 92.6563L52.0326 92.6563L49.8518 91.4778L49.8518 91.4778L49.8518 82.7759L49.8518 82.7759" fill="#2e8c01" fill-rule="nonzero" opacity="1" stroke="none"/>
<path d="M52.035 83.9425L54.2102 82.7759L54.2102 82.7759L54.2102 91.4669L54.2102 91.4669L52.035 92.644L52.035 92.644L52.035 83.9425" fill="#36a401" fill-rule="nonzero" opacity="1" stroke="none"/>
<path d="M52.0251 83.9437L54.2013 82.7759L54.2013 82.7759L52.0251 81.5919L52.0251 81.5919L49.8518 82.7759L49.8518 82.7759L52.0251 83.9437" fill="#22c100" fill-rule="nonzero" opacity="1" stroke="none"/>
<path d="M52.0351 81.5216L52.0351 90.234L52.0351 90.234L49.8543 89.0555L49.8543 89.0555L49.8543 80.3536L49.8543 80.3536" fill="#2e8c01" fill-rule="nonzero" opacity="1" stroke="none"/>
<path d="M52.0376 81.5202L54.2128 80.3536L54.2128 80.3536L54.2128 89.0446L54.2128 89.0446L52.0376 90.2217L52.0376 90.2217L52.0376 81.5202" fill="#36a401" fill-rule="nonzero" opacity="1" stroke="none"/>
<path d="M52.0277 81.5214L54.2038 80.3536L54.2038 80.3536L52.0277 79.1696L52.0277 79.1696L49.8543 80.3536L49.8543 80.3536L52.0277 81.5214" fill="#3bb500" fill-rule="nonzero" opacity="1" stroke="none"/>
<path d="M60.6263 75.3921L60.6263 84.1044L60.6263 84.1044L58.4455 82.9259L58.4455 82.9259L58.4455 74.224L58.4455 74.224" fill="#2e8c01" fill-rule="nonzero" opacity="1" stroke="none"/>
<path d="M60.6287 75.3906L62.804 74.224L62.804 74.224L62.804 82.9151L62.804 82.9151L60.6287 84.0921L60.6287 84.0921L60.6287 75.3906" fill="#1eaa00" fill-rule="nonzero" opacity="1" stroke="none"/>
<path d="M60.6288 72.9698L60.6288 81.6821L60.6288 81.6821L58.448 80.5036L58.448 80.5036L58.448 71.8017L58.448 71.8017" fill="#2e8c01" fill-rule="nonzero" opacity="1" stroke="none"/>
<path d="M60.6313 72.9683L62.8065 71.8017L62.8065 71.8017L62.8065 80.4927L62.8065 80.4927L60.6313 81.6698L60.6313 81.6698L60.6313 72.9683" fill="#36a401" fill-rule="nonzero" opacity="1" stroke="none"/>
<path d="M60.6214 72.9696L62.7976 71.8017L62.7976 71.8017L60.6214 70.6178L60.6214 70.6178L58.448 71.8017L58.448 71.8017L60.6214 72.9696" fill="#3bb500" fill-rule="nonzero" opacity="1" stroke="none"/>
<path d="M64.4504 75.8177L64.4504 84.5301L64.4504 84.5301L62.2696 83.3515L62.2696 83.3515L62.2696 74.6496L62.2696 74.6496" fill="#2e8c01" fill-rule="nonzero" opacity="1" stroke="none"/>
<path d="M64.4528 75.8162L66.628 74.6496L66.628 74.6496L66.628 83.3407L66.628 83.3407L64.4528 84.5177L64.4528 84.5177L64.4528 75.8162" fill="#36a401" fill-rule="nonzero" opacity="1" stroke="none"/>
<path d="M64.4469 70.051L64.4469 78.7634L64.4469 78.7634L62.2661 77.5848L62.2661 77.5848L62.2661 68.8829L62.2661 68.8829" fill="#2e8c01" fill-rule="nonzero" opacity="1" stroke="none"/>
<path d="M64.4493 70.0495L66.6245 68.8829L66.6245 68.8829L66.6245 77.574L66.6245 77.574L64.4493 78.751L64.4493 78.751L64.4493 70.0495" fill="#36a401" fill-rule="nonzero" opacity="1" stroke="none"/>
<path d="M64.4394 70.0508L66.6156 68.8829L66.6156 68.8829L64.4394 67.699L64.4394 67.699L62.2661 68.8829L62.2661 68.8829L64.4394 70.0508" fill="#3bb500" fill-rule="nonzero" opacity="1" stroke="none"/>
<path d="M61.582 80.7528L61.582 89.4652L61.582 89.4652L59.4012 88.2867L59.4012 88.2867L59.4012 79.5847L59.4012 79.5847" fill="#2e8c01" fill-rule="nonzero" opacity="1" stroke="none"/>
<path d="M61.5844 80.7513L63.7596 79.5847L63.7596 79.5847L63.7596 88.2758L63.7596 88.2758L61.5844 89.4528L61.5844 89.4528L61.5844 80.7513" fill="#36a401" fill-rule="nonzero" opacity="1" stroke="none"/>
<path d="M61.5784 74.9861L61.5784 83.6985L61.5784 83.6985L59.3976 82.52L59.3976 82.52L59.3976 73.818L59.3976 73.818" fill="#2e8c01" fill-rule="nonzero" opacity="1" stroke="none"/>
<path d="M61.5809 74.9846L63.7561 73.818L63.7561 73.818L63.7561 82.5091L63.7561 82.5091L61.5809 83.6861L61.5809 83.6861L61.5809 74.9846" fill="#36a401" fill-rule="nonzero" opacity="1" stroke="none"/>
<path d="M61.571 74.9859L63.7471 73.818L63.7471 73.818L61.571 72.6341L61.571 72.6341L59.3976 73.818L59.3976 73.818L61.571 74.9859" fill="#3bb500" fill-rule="nonzero" opacity="1" stroke="none"/>
<path d="M48.335 85.1234L48.335 93.8358L48.335 93.8358L46.1541 92.6572L46.1541 92.6572L46.1541 83.9554L46.1541 83.9554" fill="#2e8c01" fill-rule="nonzero" opacity="1" stroke="none"/>
<path d="M48.3374 85.122L50.5126 83.9554L50.5126 83.9554L50.5126 92.6464L50.5126 92.6464L48.3374 93.8235L48.3374 93.8235L48.3374 85.122" fill="#36a401" fill-rule="nonzero" opacity="1" stroke="none"/>
<path d="M48.3375 82.7011L48.3375 91.4135L48.3375 91.4135L46.1567 90.2349L46.1567 90.2349L46.1567 81.5331L46.1567 81.5331" fill="#2e8c01" fill-rule="nonzero" opacity="1" stroke="none"/>
<path d="M48.3399 82.6997L50.5152 81.5331L50.5152 81.5331L50.5152 90.2241L50.5152 90.2241L48.3399 91.4012L48.3399 91.4012L48.3399 82.6997" fill="#36a401" fill-rule="nonzero" opacity="1" stroke="none"/>
<path d="M48.3301 82.7009L50.5062 81.5331L50.5062 81.5331L48.3301 80.3491L48.3301 80.3491L46.1567 81.5331L46.1567 81.5331L48.3301 82.7009" fill="#3bb500" fill-rule="nonzero" opacity="1" stroke="none"/>
</g>
</svg>
