<?xml version="1.0" encoding="UTF-8" standalone="no"?>
<!DOCTYPE svg PUBLIC "-//W3C//DTD SVG 1.1//EN" "http://www.w3.org/Graphics/SVG/1.1/DTD/svg11.dtd">
<!-- Created with Vectornator (http://vectornator.io/) -->
<svg height="100%" stroke-miterlimit="10" style="fill-rule:nonzero;clip-rule:evenodd;stroke-linecap:round;stroke-linejoin:round;" version="1.1" viewBox="0 0 120 120" width="100%" xml:space="preserve" xmlns="http://www.w3.org/2000/svg" xmlns:xlink="http://www.w3.org/1999/xlink">
<defs/>
<g id="Layer-1">
<path d="M92.5676 67.4113L59.8621 85.695L59.8621 85.7175L76.7838 66.7608L76.7838 66.8142L92.6511 67.3981" fill="#6f3a1a" fill-rule="nonzero" opacity="1" stroke="none"/>
<path d="M27.1566 67.3938L59.8621 85.6775L59.8621 85.7175L76.7838 66.7608L76.7838 66.7955L43.9819 48.4809L43.9948 48.4269L27.0731 67.3835" fill="#653417" fill-rule="nonzero" opacity="1" stroke="none"/>
<path d="M92.6511 67.3981L76.7838 66.8142L76.7838 66.7955L43.9819 48.4809L43.9948 48.4803L59.8621 49.0642L59.8621 49.0449L92.6063 67.3821" fill="#904a20" fill-rule="nonzero" opacity="1" stroke="none"/>
<path d="M59.8894 107.405L26.9941 89.0446L26.9941 89.0446L26.9941 67.27L26.9941 67.27L59.8894 85.6305L59.8894 85.6305L59.8894 107.405" fill="#5a2e14" fill-rule="nonzero" opacity="1" stroke="none"/>
<path d="M92.7853 67.26L59.89 85.6205L59.89 85.6205L59.89 107.395L59.89 107.395L92.7853 89.0346L92.5881 89.0346L92.5881 67.26" fill="#6f3a1a" fill-rule="nonzero" opacity="1" stroke="none"/>
</g>
</svg>
