<?xml version="1.0" encoding="UTF-8" standalone="no"?>
<!DOCTYPE svg PUBLIC "-//W3C//DTD SVG 1.1//EN" "http://www.w3.org/Graphics/SVG/1.1/DTD/svg11.dtd">
<!-- Created with Vectornator (http://vectornator.io/) -->
<svg height="100%" stroke-miterlimit="10" style="fill-rule:nonzero;clip-rule:evenodd;stroke-linecap:round;stroke-linejoin:round;" version="1.1" viewBox="0 0 120 120" width="100%" xml:space="preserve" xmlns="http://www.w3.org/2000/svg" xmlns:xlink="http://www.w3.org/1999/xlink">
<defs/>
<g id="Layer-1">
<path d="M59.9931 66.035L110.125 38.0477L110.125 38.0477L59.9931 10.0413L59.9931 10.0413L9.98032 38.0477L9.98032 38.0477L59.9931 66.035" fill="#007e0d" fill-rule="nonzero" opacity="1" stroke="none"/>
<path d="M59.9931 72.0286L9.98032 44.034L9.98032 44.034L9.98032 72.0286L9.98032 72.0286L59.9931 100.044L59.9931 100.044" fill="#572100" fill-rule="nonzero" opacity="1" stroke="none"/>
<path d="M59.9931 100.044L110.125 72.0286L110.125 72.0286L110.125 44.034L110.125 44.034L59.9931 72.0286L59.9931 72.0286L59.9931 99.2684" fill="#7e3100" fill-rule="nonzero" opacity="1" stroke="none"/>
<path d="M59.9931 66.0494L9.98032 38.0477L9.98032 38.0477L9.98032 44.034L9.98032 44.034L59.9931 72.0286L59.9931 72.0286L59.9931 66.0053" fill="#004e08" fill-rule="nonzero" opacity="1" stroke="none"/>
<path d="M59.9931 65.9845L110.125 38.0477L110.125 38.0477L110.125 44.034L110.125 44.034L59.9931 72.0286L59.9931 72.0286L59.9931 66.0053" fill="#00700c" fill-rule="nonzero" opacity="1" stroke="none"/>
</g>
</svg>
