<?xml version="1.0" encoding="UTF-8" standalone="no"?>
<!DOCTYPE svg PUBLIC "-//W3C//DTD SVG 1.1//EN" "http://www.w3.org/Graphics/SVG/1.1/DTD/svg11.dtd">
<!-- Created with Vectornator (http://vectornator.io/) -->
<svg height="100%" stroke-miterlimit="10" style="fill-rule:nonzero;clip-rule:evenodd;stroke-linecap:round;stroke-linejoin:round;" version="1.1" viewBox="0 0 100 100" width="100%" xml:space="preserve" xmlns="http://www.w3.org/2000/svg" xmlns:vectornator="http://vectornator.io" xmlns:xlink="http://www.w3.org/1999/xlink">
<defs/>
<g id="Layer-1" vectornator:layerName="Layer 1">
<path d="M50.0071 50.5609L50.0071 80.8929L50.0071 80.8929L42.4145 76.7899L42.4145 76.7899L42.4145 46.4943L42.4145 46.4943" fill="#411d08" fill-rule="nonzero" opacity="1" stroke="none"/>
<path d="M50.0071 50.5302L57.5971 46.4595L57.5971 46.4595L57.5971 76.7858L57.5971 76.7858L50.0071 80.8929L50.0071 80.8929L50.0071 50.5302" fill="#642b09" fill-rule="nonzero" opacity="1" stroke="none"/>
<path d="M26.8662 31.5891L50.0071 43.9835L50.0071 43.9837L73.148 31.5894L73.148 31.5894L50.0071 19.195L50.0071 19.195L26.8662 31.5894" fill="#008928" fill-rule="nonzero" opacity="1" stroke="none"/>
<path d="M50.0071 43.9837L27.0668 31.5995L27.0668 31.5995L27.0668 50.2172L27.0668 50.2295L50.0071 62.6236L50.0071 62.6236L50.0071 44.0058" fill="#00621d" fill-rule="nonzero" opacity="1" stroke="none"/>
<path d="M73.0013 31.6117L73.0013 50.2295L73.0013 50.2295L50.0071 62.6236L50.0071 62.6236L50.0071 43.9837L50.0071 43.9837L73.0013 31.5995" fill="#007b24" fill-rule="nonzero" opacity="1" stroke="none"/>
</g>
</svg>
