<?xml version="1.0" encoding="UTF-8" standalone="no"?>
<!DOCTYPE svg PUBLIC "-//W3C//DTD SVG 1.1//EN" "http://www.w3.org/Graphics/SVG/1.1/DTD/svg11.dtd">
<!-- Created with Vectornator (http://vectornator.io/) -->
<svg height="100%" stroke-miterlimit="10" style="fill-rule:nonzero;clip-rule:evenodd;stroke-linecap:round;stroke-linejoin:round;" version="1.1" viewBox="0 0 120 120" width="100%" xml:space="preserve" xmlns="http://www.w3.org/2000/svg" xmlns:xlink="http://www.w3.org/1999/xlink">
<defs/>
<g id="Layer-1">
<path d="M59.8273 107.422L89.0378 91.115L89.0378 91.115L59.8273 74.7965L59.8273 74.7965L30.6864 91.115L30.6864 91.115L59.8273 107.422" fill="#3f5d51" fill-rule="nonzero" opacity="1" stroke="none"/>
<path d="M34.7478 92.7453L34.7478 74.3622L34.7478 74.3622L31.7222 72.6592L31.7222 72.6592L31.7222 91.0782L31.7222 91.0782L34.7478 92.7453" fill="#5a2e14" fill-rule="nonzero" opacity="1" stroke="none"/>
<path d="M34.7478 92.7453L37.8146 91.0782L37.8146 91.0782L37.8146 72.6592L37.8146 72.6592L34.7478 74.3622L34.7478 74.3622L34.7478 92.7453" fill="#6f3a1a" fill-rule="nonzero" opacity="1" stroke="none"/>
<path d="M84.918 92.7432L84.918 74.3601L84.918 74.3601L81.8924 72.6571L81.8924 72.6571L81.8924 91.0762L81.8924 91.0762L84.918 92.7432" fill="#5a2e14" fill-rule="nonzero" opacity="1" stroke="none"/>
<path d="M84.918 92.7432L87.9847 91.0762L87.9847 91.0762L87.9847 72.6571L87.9847 72.6571L84.918 74.3601L84.918 74.3601L84.918 92.7432" fill="#6f3a1a" fill-rule="nonzero" opacity="1" stroke="none"/>
<path d="M59.8415 106.581L59.8415 88.1975L59.8415 88.1975L56.8159 86.4945L56.8159 86.4945L56.8159 104.914L56.8159 104.914L59.8415 106.581" fill="#5a2e14" fill-rule="nonzero" opacity="1" stroke="none"/>
<path d="M59.8415 106.581L62.9083 104.914L62.9083 104.914L62.9083 86.4945L62.9083 86.4945L59.8415 88.1975L59.8415 88.1975L59.8415 106.581" fill="#6f3a1a" fill-rule="nonzero" opacity="1" stroke="none"/>
<path d="M92.6407 71.2803L59.8507 89.6399L59.8507 89.6399L59.8507 85.7149L59.8507 85.7149L92.6407 67.36L92.6407 67.36L92.6407 71.3092" fill="#6f3a1a" fill-rule="nonzero" opacity="1" stroke="none"/>
<path d="M27.0705 71.2722L59.862 89.6318L59.862 89.6318L59.862 85.7068L59.862 85.7068L27.0705 67.3519L27.0705 67.3519L27.0705 71.3011" fill="#5a2e14" fill-rule="nonzero" opacity="1" stroke="none"/>
<path d="M59.8493 85.7071L92.6537 67.3934L92.6537 67.3934L59.8493 49.0672L59.8493 49.0672L27.1231 67.3934L27.1231 67.3934L59.8493 85.7071" fill="#994e21" fill-rule="nonzero" opacity="1" stroke="none"/>
<path d="M92.5676 67.4113L59.8621 85.695L59.8621 85.7175L76.7838 66.7608L76.7838 66.8142L92.6511 67.3981" fill="#6f3a1a" fill-rule="nonzero" opacity="1" stroke="none"/>
<path d="M27.1566 67.3938L59.8621 85.6775L59.8621 85.7175L76.7838 66.7608L76.7838 66.7955L43.9819 48.4809L43.9948 48.4269L27.0731 67.3835" fill="#653417" fill-rule="nonzero" opacity="1" stroke="none"/>
<path d="M92.6511 67.3981L76.7838 66.8142L76.7838 66.7955L43.9819 48.4809L43.9948 48.4803L59.8621 49.0642L59.8621 49.0449L92.6063 67.3821" fill="#904a20" fill-rule="nonzero" opacity="1" stroke="none"/>
</g>
</svg>
